<?xml version="1.0" encoding="UTF-8"?>
<!DOCTYPE svg PUBLIC "-//W3C//DTD SVG 1.1//EN" "http://www.w3.org/Graphics/SVG/1.1/DTD/svg11.dtd">
<!-- Creator: CorelDRAW 2021 (64-Bit) -->
<svg xmlns="http://www.w3.org/2000/svg" xml:space="preserve" width="210px" height="200px" version="1.1"
     style="shape-rendering:geometricPrecision; text-rendering:geometricPrecision; image-rendering:optimizeQuality; fill-rule:evenodd; clip-rule:evenodd"
     viewBox="0 0 210 200.19"
>
 <defs>
  <style type="text/css">
   <![CDATA[
    .fil0 {fill:#58D400;fill-rule:nonzero}
   ]]>
  </style>
 </defs>
 <g id="Слой_x0020_1">
  <metadata id="CorelCorpID_0Corel-Layer"/>
  <path class="fil0"
        d="M100.1 0c23.49,0 45.1,8.1 62.17,21.65 -0.6,0.4 -1.2,0.81 -1.79,1.21 -5,3.4 -9.82,6.92 -14.49,10.6 -13.04,-8.99 -28.85,-14.26 -45.89,-14.26 -22.34,0 -42.57,9.05 -57.21,23.69 -14.64,14.64 -23.69,34.87 -23.69,57.21 0,22.34 9.05,42.56 23.69,57.2 14.64,14.64 34.87,23.69 57.21,23.69 22.34,0 42.56,-9.05 57.2,-23.69 14.64,-14.64 23.7,-34.86 23.7,-57.2 0,-10.78 -2.11,-21.06 -5.93,-30.46 4.5,-5.27 9.17,-10.47 13.96,-15.53 7.13,13.77 11.17,29.41 11.17,45.99 0,27.64 -11.21,52.66 -29.32,70.77 -18.12,18.12 -43.14,29.32 -70.78,29.32 -27.64,0 -52.67,-11.2 -70.78,-29.32 -18.12,-18.11 -29.32,-43.13 -29.32,-70.77 0,-27.64 11.2,-52.67 29.32,-70.78 18.11,-18.12 43.14,-29.32 70.78,-29.32zm-52.58 70.22c-1.58,2.16 -1.87,4.16 -1.49,6.06 0.38,1.91 1.44,3.72 7.8,15.49 6.36,11.77 18.02,33.49 24.95,46.39 6.94,12.9 9.13,16.97 12.45,19.01 3.33,2.05 7.79,2.07 10.71,0.77 2.93,-1.3 4.32,-3.93 9.39,-13.07 5.06,-9.15 13.81,-24.81 22.77,-38.96 8.96,-14.15 18.14,-26.79 28.13,-38.83 10,-12.03 20.82,-23.46 28.39,-30.95 7.57,-7.49 11.89,-11.04 14.83,-13.83 2.94,-2.8 4.51,-4.84 4.55,-6.9 0.04,-2.07 -1.45,-4.16 -3.21,-5.01 -1.76,-0.85 -3.78,-0.46 -10.75,3.2 -6.97,3.65 -18.88,10.58 -30.19,18.27 -11.3,7.69 -22,16.14 -33.4,27.38 -11.4,11.25 -23.49,25.29 -35.59,39.33 -10.94,-11.13 -21.62,-22.53 -27.96,-28.42 -5.17,-4.79 -7.79,-9.69 -14.58,-5.86 -2.41,1.36 -5.22,3.77 -6.8,5.93z"/>
 </g>
</svg>
